<svg width="40" height="40" viewBox="0 0 40 40" fill="none" xmlns="http://www.w3.org/2000/svg">
<g clip-path="url(#clip0_427_13807)">
<path d="M17.4915 14.4551C17.2198 13.7949 16.5833 13.3687 15.8695 13.3687H15.8676C15.1531 13.3694 14.5165 13.7972 14.2461 14.4586C14.2412 14.4702 14.2366 14.4821 14.2321 14.4939L10.9075 23.223C10.6022 24.0247 11.0046 24.9222 11.8063 25.2276C12.6083 25.5332 13.5055 25.1305 13.8109 24.3288L14.2578 23.1554H17.4549L17.8961 24.3245C18.1308 24.9466 18.7219 25.3298 19.3497 25.3298C19.5319 25.3297 19.7173 25.2974 19.8979 25.2293C20.7005 24.9264 21.1056 24.0302 20.8027 23.2275L17.5083 14.4979C17.503 14.4836 17.4973 14.4693 17.4915 14.4551ZM15.441 20.0485L15.8636 18.9388L16.2824 20.0485H15.441Z" fill="white"/>
<path d="M22.2068 14.7912V23.645C22.2068 24.503 22.9023 25.1984 23.7602 25.1984C24.6182 25.1984 25.3136 24.503 25.3136 23.645V14.7912C25.3136 13.9332 24.6182 13.2378 23.7602 13.2378C22.9023 13.2378 22.2068 13.9332 22.2068 14.7912Z" fill="white"/>
<path d="M19.167 0.0170898C24.3129 0.0171711 29.1512 2.02101 32.79 5.65967C35.3593 8.22892 37.1432 11.4512 37.9482 14.978C38.7308 18.4069 38.5646 21.9836 37.4668 25.3198C37.1813 26.1871 36.2464 26.6587 35.3789 26.3735C34.5115 26.0881 34.0397 25.153 34.3252 24.2856C36.221 18.5238 34.737 12.2835 30.4521 7.99854C24.2295 1.77584 14.1046 1.77576 7.88184 7.99854C1.65914 14.2212 1.65914 24.3462 7.88184 30.5688C14.1045 36.7913 24.2296 36.7915 30.4521 30.5688L30.498 30.521H30.499L30.5527 30.4653L30.6738 30.354C30.9676 30.109 31.3387 29.9721 31.7246 29.9702H31.7324C32.1706 29.9702 32.5913 30.1439 32.9014 30.4536L39.6152 37.1606C40.2611 37.806 40.2615 38.8525 39.6162 39.4985C39.2934 39.8217 38.8696 39.9839 38.4463 39.9839C38.0237 39.9838 37.601 39.8218 37.2783 39.4995L31.6934 33.9214C28.2057 36.9156 23.8122 38.5502 19.167 38.5503C14.0209 38.5503 9.18184 36.5456 5.54297 32.9067C1.90423 29.268 -0.0995282 24.4296 -0.0996094 19.2837C-0.0996094 14.1376 1.9041 9.29862 5.54297 5.65967C9.18184 2.02088 14.0209 0.0170898 19.167 0.0170898Z" fill="white" stroke="white" stroke-width="0.2"/>
</g>
<defs>
<clipPath id="clip0_427_13807">
<rect width="40" height="40" fill="white"/>
</clipPath>
</defs>
</svg>
