<svg width="20" height="20" viewBox="0 0 20 20" fill="none" xmlns="http://www.w3.org/2000/svg">
<path d="M9.375 8.06186V13.7494C9.375 13.9151 9.44085 14.0741 9.55806 14.1913C9.67527 14.3085 9.83424 14.3744 10 14.3744C10.1658 14.3744 10.3247 14.3085 10.4419 14.1913C10.5592 14.0741 10.625 13.9151 10.625 13.7494V8.06186C11.3838 7.90698 12.058 7.47587 12.517 6.85212C12.976 6.22837 13.187 5.45641 13.1092 4.68591C13.0313 3.91541 12.6702 3.20125 12.0957 2.6819C11.5213 2.16255 10.7744 1.875 10 1.875C9.22558 1.875 8.47874 2.16255 7.90428 2.6819C7.32982 3.20125 6.96866 3.91541 6.89082 4.68591C6.81299 5.45641 7.02402 6.22837 7.483 6.85212C7.94199 7.47587 8.61622 7.90698 9.375 8.06186ZM10 3.12436C10.3708 3.12436 10.7334 3.23433 11.0417 3.44036C11.35 3.64638 11.5904 3.93922 11.7323 4.28183C11.8742 4.62444 11.9113 5.00144 11.839 5.36516C11.7666 5.72887 11.588 6.06296 11.3258 6.32519C11.0636 6.58741 10.7295 6.76599 10.3658 6.83834C10.0021 6.91068 9.62508 6.87355 9.28247 6.73164C8.93986 6.58972 8.64702 6.3494 8.44099 6.04106C8.23497 5.73271 8.125 5.3702 8.125 4.99936C8.125 4.50208 8.32254 4.02517 8.67417 3.67354C9.02581 3.32191 9.50272 3.12436 10 3.12436ZM18.75 13.7494C18.75 16.1853 14.2414 17.4994 10 17.4994C5.75859 17.4994 1.25 16.1853 1.25 13.7494C1.25 13.1447 1.54766 12.2548 2.96875 11.4517C3.92656 10.9095 5.24375 10.4931 6.77891 10.247C6.86011 10.2342 6.94305 10.2375 7.02298 10.2567C7.10291 10.2759 7.17827 10.3107 7.24475 10.3591C7.31124 10.4074 7.36756 10.4684 7.41048 10.5385C7.4534 10.6086 7.4821 10.6865 7.49492 10.7677C7.50775 10.8489 7.50445 10.9319 7.48522 11.0118C7.466 11.0917 7.43121 11.1671 7.38286 11.2336C7.33451 11.3001 7.27354 11.3564 7.20342 11.3993C7.13331 11.4422 7.05542 11.4709 6.97422 11.4837C5.60391 11.7041 4.39609 12.0798 3.58203 12.5423C2.89453 12.929 2.5 13.3697 2.5 13.7494C2.5 14.7931 5.35313 16.2494 10 16.2494C14.6469 16.2494 17.5 14.7931 17.5 13.7494C17.5 13.3697 17.1055 12.929 16.418 12.5392C15.6008 12.0767 14.3961 11.7009 13.0258 11.4806C12.9429 11.4698 12.8629 11.4424 12.7908 11.4001C12.7186 11.3579 12.6557 11.3015 12.6057 11.2345C12.5557 11.1674 12.5197 11.091 12.4997 11.0098C12.4798 10.9286 12.4764 10.8442 12.4897 10.7616C12.5029 10.679 12.5327 10.6 12.5771 10.5291C12.6215 10.4582 12.6796 10.397 12.7481 10.349C12.8166 10.301 12.8941 10.2673 12.9758 10.2497C13.0576 10.2322 13.1421 10.2313 13.2242 10.247C14.7594 10.4931 16.0766 10.9095 17.0344 11.4517C18.4523 12.2548 18.75 13.1447 18.75 13.7494Z" fill="#111827"/>
</svg>
