<svg width="20" height="20" viewBox="0 0 20 20" fill="none" xmlns="http://www.w3.org/2000/svg">
<g clip-path="url(#clip0_427_8100)">
<path d="M19.3486 18.3333H18.0442V6.66667C18.2172 6.66667 18.3831 6.57887 18.5054 6.42259C18.6277 6.26631 18.6964 6.05434 18.6964 5.83333C18.6964 5.61232 18.6277 5.40036 18.5054 5.24408C18.3831 5.0878 18.2172 5 18.0442 5H14.1312V1.66667C14.3042 1.66667 14.4701 1.57887 14.5923 1.42259C14.7147 1.26631 14.7834 1.05435 14.7834 0.833333C14.7834 0.61232 14.7147 0.400358 14.5923 0.244078C14.4701 0.0877976 14.3042 0 14.1312 0H2.39207C2.2191 0 2.05322 0.0877976 1.93091 0.244078C1.80861 0.400358 1.73989 0.61232 1.73989 0.833333C1.73989 1.05435 1.80861 1.26631 1.93091 1.42259C2.05322 1.57887 2.2191 1.66667 2.39207 1.66667V18.3333H1.08772C0.914756 18.3333 0.74887 18.4211 0.626564 18.5774C0.504258 18.7337 0.435547 18.9457 0.435547 19.1667C0.435547 19.3877 0.504258 19.5997 0.626564 19.7559C0.74887 19.9122 0.914756 20 1.08772 20H19.3486C19.5215 20 19.6875 19.9122 19.8097 19.7559C19.9321 19.5997 20.0008 19.3877 20.0008 19.1667C20.0008 18.9457 19.9321 18.7337 19.8097 18.5774C19.6875 18.4211 19.5215 18.3333 19.3486 18.3333ZM16.7399 6.66667V18.3333H14.1312V6.66667H16.7399ZM3.69642 1.66667H12.8269V18.3333H10.8703V13.3333C10.8703 13.1123 10.8016 12.9003 10.6793 12.7441C10.557 12.5878 10.3911 12.5 10.2182 12.5H6.30511C6.13215 12.5 5.96626 12.5878 5.84396 12.7441C5.72165 12.9003 5.65294 13.1123 5.65294 13.3333V18.3333H3.69642V1.66667ZM9.56598 18.3333H6.95729V14.1667H9.56598V18.3333ZM5.00076 5C5.00076 4.77899 5.06948 4.56702 5.19178 4.41074C5.31409 4.25447 5.47997 4.16667 5.65294 4.16667H6.95729C7.13025 4.16667 7.29614 4.25447 7.41844 4.41074C7.54075 4.56702 7.60946 4.77899 7.60946 5C7.60946 5.22101 7.54075 5.43298 7.41844 5.58926C7.29614 5.74553 7.13025 5.83333 6.95729 5.83333H5.65294C5.47997 5.83333 5.31409 5.74553 5.19178 5.58926C5.06948 5.43298 5.00076 5.22101 5.00076 5ZM8.91381 5C8.91381 4.77899 8.9825 4.56702 9.10485 4.41074C9.22711 4.25447 9.39303 4.16667 9.56598 4.16667H10.8703C11.0433 4.16667 11.2092 4.25447 11.3315 4.41074C11.4538 4.56702 11.5225 4.77899 11.5225 5C11.5225 5.22101 11.4538 5.43298 11.3315 5.58926C11.2092 5.74553 11.0433 5.83333 10.8703 5.83333H9.56598C9.39303 5.83333 9.22711 5.74553 9.10485 5.58926C8.9825 5.43298 8.91381 5.22101 8.91381 5ZM5.00076 9.16667C5.00076 8.94566 5.06948 8.73369 5.19178 8.57741C5.31409 8.42113 5.47997 8.33333 5.65294 8.33333H6.95729C7.13025 8.33333 7.29614 8.42113 7.41844 8.57741C7.54075 8.73369 7.60946 8.94566 7.60946 9.16667C7.60946 9.38768 7.54075 9.59964 7.41844 9.75592C7.29614 9.9122 7.13025 10 6.95729 10H5.65294C5.47997 10 5.31409 9.9122 5.19178 9.75592C5.06948 9.59964 5.00076 9.38768 5.00076 9.16667ZM8.91381 9.16667C8.91381 8.94566 8.9825 8.73369 9.10485 8.57741C9.22711 8.42113 9.39303 8.33333 9.56598 8.33333H10.8703C11.0433 8.33333 11.2092 8.42113 11.3315 8.57741C11.4538 8.73369 11.5225 8.94566 11.5225 9.16667C11.5225 9.38768 11.4538 9.59964 11.3315 9.75592C11.2092 9.9122 11.0433 10 10.8703 10H9.56598C9.39303 10 9.22711 9.9122 9.10485 9.75592C8.9825 9.59964 8.91381 9.38768 8.91381 9.16667Z" fill="#374151"/>
</g>
<defs>
<clipPath id="clip0_427_8100">
<rect width="20" height="20" fill="white"/>
</clipPath>
</defs>
</svg>
