<svg width="19" height="19" viewBox="0 0 19 19" fill="none" xmlns="http://www.w3.org/2000/svg">
<path d="M16.1945 6.4375L12.1945 2.4375M16.1945 6.4375L11.196 11.4359C10.5373 12.0946 9.73784 12.6146 8.81993 12.7729C7.89311 12.9328 6.74294 12.986 6.19444 12.4375C5.64595 11.889 5.69915 10.7388 5.859 9.81202C6.01731 8.8941 6.53735 8.0946 7.196 7.43595L12.1945 2.4375M16.1945 6.4375C16.1945 6.4375 19.1944 3.4375 17.1944 1.4375C15.1944 -0.5625 12.1945 2.4375 12.1945 2.4375M17.75 9.25C17.75 15.75 15.75 17.75 9.25 17.75C2.75 17.75 0.75 15.75 0.75 9.25C0.75 2.75 2.75 0.75 9.25 0.75" stroke="#454852" stroke-width="1.5" stroke-linecap="round" stroke-linejoin="round"/>
</svg>
