<svg width="37" height="37" viewBox="0 0 37 37" fill="none" xmlns="http://www.w3.org/2000/svg">
<path d="M2.27617 22.9492C2.82884 22.4488 3.68297 22.4912 4.1834 23.0439C4.6838 23.5966 4.64132 24.4508 4.08867 24.9512C3.15596 25.7959 2.79972 26.5907 2.79961 27.2832C2.79961 27.887 3.08663 28.5743 3.74394 29.2783C4.40115 29.9823 5.42471 30.6981 6.88554 31.3555C9.69038 32.6178 13.6603 33.4336 18.117 33.4336C22.5735 33.4336 26.5427 32.6177 29.3475 31.3555C30.8084 30.6981 31.8328 29.9823 32.49 29.2783C33.1472 28.5744 33.4334 27.8869 33.4334 27.2832C33.4333 26.5907 33.0772 25.7959 32.1443 24.9512C31.5918 24.4508 31.5502 23.5965 32.0506 23.0439C32.5509 22.4915 33.4043 22.449 33.9568 22.9492C35.2415 24.1123 36.1335 25.581 36.1336 27.2832C36.1336 30.2166 33.556 32.4234 30.4559 33.8184C27.2286 35.2707 22.865 36.1337 18.117 36.1338C13.3689 36.1338 9.00444 35.2707 5.77715 33.8184C2.67705 32.4234 0.100388 30.2166 0.100388 27.2832C0.100501 25.581 0.991663 24.1123 2.27617 22.9492ZM18.117 0.100586C25.2124 0.100751 31.1334 5.4758 31.1336 12.3076C31.1336 18.6915 27.1782 26.1897 20.7811 28.9238C19.088 29.6474 17.146 29.6474 15.4529 28.9238C9.05547 26.1899 5.10039 18.6917 5.10039 12.3076C5.10057 5.4757 11.0214 0.100586 18.117 0.100586ZM18.117 2.7998C12.3266 2.7998 7.79979 7.14625 7.79961 12.3076C7.79961 15.0613 8.67183 18.0376 10.199 20.6055C11.7263 23.1734 13.9047 25.3265 16.5135 26.4414L16.7059 26.5176C17.6754 26.8736 18.7675 26.8482 19.7195 26.4414L20.2039 26.2207C22.5985 25.0562 24.6031 23.0129 26.035 20.6055C27.562 18.0377 28.4334 15.0612 28.4334 12.3076C28.4332 7.14635 23.9071 2.79997 18.117 2.7998ZM18.117 8.43359C20.7034 8.43377 22.7996 10.5308 22.7996 13.1172C22.7994 15.7035 20.7033 17.7996 18.117 17.7998C15.5305 17.7998 13.4336 15.7036 13.4334 13.1172C13.4334 10.5307 15.5304 8.43359 18.117 8.43359ZM18.117 11.1338C17.0216 11.1338 16.1336 12.0218 16.1336 13.1172C16.1338 14.2124 17.0217 15.1006 18.117 15.1006C19.2122 15.1004 20.1002 14.2123 20.1004 13.1172C20.1004 12.0219 19.2123 11.134 18.117 11.1338Z" fill="white" stroke="white" stroke-width="0.2"/>
</svg>
