<svg width="37" height="37" viewBox="0 0 37 37" fill="none" xmlns="http://www.w3.org/2000/svg">
<path d="M18.117 0.100586C19.1424 0.10064 20.0843 0.355237 21.1072 0.77832C22.0935 1.18623 23.2376 1.78738 24.6551 2.53125L28.1004 4.33887C29.8403 5.25192 31.2395 5.98673 32.3211 6.70898C33.4435 7.45848 34.3155 8.25193 34.951 9.33105C35.5842 10.4064 35.8674 11.5686 36.0027 12.9414C36.1338 14.2721 36.1336 15.9071 36.1336 17.9541V18.2793C36.1336 20.3264 36.1338 21.9612 36.0027 23.292C35.8674 24.6649 35.5842 25.827 34.951 26.9023C34.3154 27.9816 33.4436 28.7759 32.3211 29.5254C31.2396 30.2476 29.8402 30.9815 28.1004 31.8945L24.6551 33.7031C23.2377 34.4469 22.0935 35.0471 21.1072 35.4551C20.0843 35.8781 19.1424 36.1337 18.117 36.1338C17.0915 36.1338 16.1497 35.8781 15.1268 35.4551C14.1404 35.0471 12.9955 34.447 11.5779 33.7031L8.13261 31.8945C6.61044 31.0958 5.34885 30.4337 4.33281 29.7969L3.91191 29.5254C2.78951 28.7759 1.91756 27.9817 1.28203 26.9023C0.648801 25.827 0.366493 24.6649 0.231247 23.292C0.100173 21.9612 0.100371 20.3263 0.100388 18.2793V17.9541C0.100371 15.907 0.100165 14.2721 0.231247 12.9414C0.366505 11.5686 0.648795 10.4064 1.28203 9.33105C1.91752 8.25191 2.78966 7.45848 3.91191 6.70898L4.33281 6.43652C5.34888 5.79975 6.61041 5.13766 8.13261 4.33887L11.5779 2.53125C12.9955 1.78732 14.1404 1.18622 15.1268 0.77832C16.1497 0.355273 17.0916 0.100586 18.117 0.100586ZM3.08281 12.1084C3.01345 12.4293 2.95873 12.7905 2.91777 13.2061C2.80133 14.3881 2.79961 15.889 2.79961 18.0195V18.2148C2.79961 20.345 2.80135 21.8455 2.91777 23.0273C3.03144 24.1812 3.24679 24.9168 3.60918 25.5322C3.96929 26.1437 4.49148 26.6662 5.41093 27.2803C6.35887 27.9133 7.63001 28.582 9.44804 29.5361L12.7811 31.2852C14.2654 32.0641 15.2999 32.6051 16.158 32.96C16.3767 33.0505 16.5789 33.1232 16.7664 33.1855V18.9502L3.08281 12.1084ZM19.4666 18.9502V33.1855C19.6541 33.1232 19.8562 33.0505 20.075 32.96C20.9331 32.6051 21.9677 32.0641 23.452 31.2852L26.7859 29.5361C28.6039 28.582 29.8742 27.9133 30.8221 27.2803C31.7416 26.6661 32.2647 26.1437 32.6248 25.5322C32.9872 24.9168 33.2017 24.1811 33.3152 23.0273C33.4318 21.8455 33.4334 20.3451 33.4334 18.2148V18.0195C33.4334 15.889 33.4318 14.388 33.3152 13.2061C33.2744 12.7908 33.2185 12.4301 33.1492 12.1094L19.4666 18.9502ZM18.117 2.7998C17.5688 2.7998 16.9913 2.92881 16.158 3.27344C15.2999 3.62836 14.2654 4.17023 12.7811 4.94922L9.44804 6.69824C7.63001 7.6523 6.35887 8.32105 5.41093 8.9541C4.99709 9.2305 4.66458 9.48884 4.39043 9.74414L18.116 16.6074L31.8426 9.74414C31.5683 9.48883 31.2359 9.23049 30.8221 8.9541C29.8742 8.3211 28.6038 7.65221 26.7859 6.69824L23.452 4.94922C21.9675 4.1702 20.9331 3.62835 20.075 3.27344C19.2419 2.92892 18.665 2.79986 18.117 2.7998Z" fill="white" stroke="white" stroke-width="0.2"/>
</svg>
