<?xml version="1.0" encoding="utf-8"?>

<!DOCTYPE svg PUBLIC "-//W3C//DTD SVG 1.1//EN" "http://www.w3.org/Graphics/SVG/1.1/DTD/svg11.dtd">
<!-- Uploaded to: SVG Repo, www.svgrepo.com, Generator: SVG Repo Mixer Tools -->
<svg height="800px" width="800px" version="1.1" id="_x32_" xmlns="http://www.w3.org/2000/svg" xmlns:xlink="http://www.w3.org/1999/xlink" 
	 viewBox="0 0 512 512"  xml:space="preserve">
<style type="text/css">
	.st0{fill:#000000;}
</style>
<g>
	<path class="st0" d="M255.992,0C107.824,0,65.061,53.766,65.061,94.809v249.906c0,36.093,29.26,65.386,65.385,65.386h251.107
		c36.126,0,65.386-29.293,65.386-65.386V94.809C446.939,53.766,404.16,0,255.992,0z M186.793,58.951h138.398
		c9.202,0,16.667,7.449,16.667,16.643c0,9.217-7.465,16.666-16.667,16.666H186.793c-9.202,0-16.651-7.449-16.651-16.666
		C170.142,66.4,177.591,58.951,186.793,58.951z M238.481,228.095H111.183v-82.037h127.298V228.095z M400.817,228.095H273.502
		v-82.037h127.315V228.095z"/>
	<polygon class="st0" points="324.947,429.996 337.634,448.724 174.361,448.724 187.052,429.996 148.346,429.996 84.276,512 
		131.485,512 160.68,468.913 351.311,468.913 380.499,512 427.708,512 363.637,429.996 	"/>
</g>
</svg>